<?xml version="1.0" standalone="no"?><!DOCTYPE svg PUBLIC "-//W3C//DTD SVG 1.1//EN" "http://www.w3.org/Graphics/SVG/1.1/DTD/svg11.dtd"><svg t="1753920871503" class="icon" viewBox="0 0 1024 1024" version="1.1" xmlns="http://www.w3.org/2000/svg" p-id="8302" xmlns:xlink="http://www.w3.org/1999/xlink" width="200" height="200"><path d="M512 0C229.234171 0 0 229.234171 0 512s229.234171 512 512 512 512-229.215969 512-512S794.765829 0 512 0z m405.045896 574.122934l-50.328131 93.229905 17.218955 2.493654-26.210672 25.482598 6.188631 36.076078-32.399303-17.036937-32.453909 17.127946 5.460557-31.98066-110.321448 15.016531 7.116926 41.536635L648.113477 728.074229l-53.25863 27.994455 10.174838-59.301646-43.083793-42.009883 59.556472-8.591276 2.54826-5.169327-42.537737-91.864766-28.868143 15.125742 6.188631-36.076078-26.210672-25.482598 16.38167-2.384443L485.989548 458.686765l3.749582 21.842226-32.399303-17.036937-32.417505 17.036937 6.188631-36.076078-26.210672-25.482598 7.826798-1.128515-71.89733-33.782644 3.73138 21.842227-32.399303-17.036937-32.399303 17.036937 6.188631-36.076078-3.476555-3.385545-126.866934-11.849408-2.093214 2.038607 6.188631 36.076079-32.399303-17.036937-32.399303 17.036937 6.188631-36.076079-26.210673-25.482598L111.03132 325.704007l16.199652-32.763341 16.199651 32.763341 36.221693 5.260336-13.105336 12.868712 102.69487 9.592378-9.501369-9.264745 36.221693-5.260336 16.199652-32.76334 16.199651 32.76334 36.221693 5.260336-26.210672 25.482598v0.309432l95.232109 44.776565 7.535569-1.092111 16.199651-32.763341 16.199652 32.763341 36.239895 5.260336-25.482598 24.772726 81.90835 53.932098 2.457251-0.364037 16.199652-32.76334 16.199651 32.76334 36.221693 5.260336-26.210672 25.482598 6.188631 36.076078-21.259768-11.175939 34.474315 74.463792 17.45558-35.384408L674.760994 646.165879l59.53827 8.645881-43.083792 42.009883 1.073909 6.297842 106.044012-14.434071L779.039426 669.828291l36.239894-5.260336 16.199652-32.763341 16.199651 32.763341 6.771091 0.9829 50.182516-93.011483-27.721426 10.538875 10.484269-35.074976-22.897935-28.522308 36.603932-0.873689 20.022041-30.633724 12.122436 34.583526 35.348004 9.592378-29.122969 22.206264 1.820186 36.567528z" fill="#1861AE" p-id="8303"></path></svg>