<?xml version="1.0" standalone="no"?><!DOCTYPE svg PUBLIC "-//W3C//DTD SVG 1.1//EN" "http://www.w3.org/Graphics/SVG/1.1/DTD/svg11.dtd"><svg t="1753920931554" class="icon" viewBox="0 0 1024 1024" version="1.1" xmlns="http://www.w3.org/2000/svg" p-id="8445" xmlns:xlink="http://www.w3.org/1999/xlink" width="200" height="200"><path d="M509.917867 59.733333c-207.342933 0-387.157333 131.293867-445.661867 317.1328a449.1776 449.1776 0 0 1 413.013333-281.326933c234.888533 0 411.306667 194.372267 411.306667 425.403733v5.973334c-236.5952 121.053867-527.36-149.1968-828.5184-44.373334 323.498667-59.733333 426.666667 240.401067 773.461333 163.6864-259.84 165.376-481.792-127.880533-754.5344-46.08 289.9456-15.36 339.848533 232.738133 666.7776 167.953067-252.945067 169.659733-438.784-109.124267-652.151466-55.415467a451.396267 451.396267 0 0 0 117.879466 145.783467l1.706667 0.853333a115.336533 115.336533 0 0 0 12.049067 9.3696l3.413333 2.56a97.28 97.28 0 0 1 11.178667 8.533334l3.413333 2.56c4.3008 2.542933 8.533333 5.956267 12.9024 8.533333l2.577067 1.706667a146.773333 146.773333 0 0 0 15.496533 9.3696l1.706667 0.853333c4.3008 2.56 9.472 5.12 14.626133 7.68l4.3008 2.56c4.3008 1.706667 7.748267 4.266667 12.049067 5.956267l5.12 2.56c4.3008 1.706667 8.533333 4.266667 12.9024 5.973333 0.853333 0.853333 2.577067 0.853333 3.413333 1.706667 6.024533 2.56 11.195733 4.266667 17.220267 6.826666l1.706666 0.836267 15.496534 5.12 5.12 1.706667 12.919466 3.413333 6.007467 1.706667 12.9024 3.413333 5.12 0.853333a134.570667 134.570667 0 0 0 18.0736 3.413334h1.706667c6.024533 0.853333 11.195733 1.706667 17.220266 2.56l6.024534 0.853333c4.3008 0.853333 8.533333 0.853333 12.9024 1.706667l6.826666 0.853333c4.3008 0 8.533333 0.853333 12.9024 0.853333h6.024534c6.024533 0 12.9024 0.853333 18.926933 0.853334a456.362667 456.362667 0 0 0 458.564267-454.4A448.546133 448.546133 0 0 0 509.917867 59.733333zM256.9728 396.475733l13.7728-63.931733 12.049067-11.946667 64.512-13.653333-64.512-12.782933-12.049067-11.946667-13.7728-64.853333-12.9024 64.853333-12.049067 11.946667-65.3824 12.782933 65.3824 13.653333 12.049067 11.946667z m149.7088-179.029333l6.826667-29.832533 5.12-5.973334 30.1056-5.956266-30.1056-5.973334-5.12-5.973333-6.826667-29.832533-6.024533 29.832533-5.12 5.973333-30.1056 5.973334 30.1056 5.956266 5.12 5.973334z m36.130133 109.124267l6.024534-26.4192 4.3008-4.266667 27.528533-5.12-27.528533-5.956267-4.3008-4.266666-6.024534-26.436267-5.12 26.436267-5.12 4.266666-27.528533 5.956267 27.528533 5.12 5.12 4.266667z m335.530667 127.0272l6.826667-30.72 6.024533-5.973334 33.553067-6.826666-33.553067-5.973334-6.024533-5.973333-6.826667-31.5392-6.024533 31.5392-6.007467 5.973333-33.570133 5.973334 33.570133 6.826666 6.007467 5.973334z m-38.7072-155.153067l3.413333-11.093333 3.413334-1.706667 17.2032-2.542933-17.2032-2.56-3.413334-1.706667-3.413333-11.093333-3.413333 11.093333-2.577067 1.706667-17.2032 2.56 17.2032 2.542933 2.577067 1.706667zM527.121067 160.324267a142.318933 142.318933 0 0 0-19.780267 1.706666 118.3232 118.3232 0 1 1-37.853867 233.591467 120.439467 120.439467 0 0 1-93.866666-75.861333 150.869333 150.869333 0 0 0 301.124266-18.773334 148.292267 148.292267 0 0 0-149.623466-140.663466z" fill="#3E5CD7" p-id="8446"></path></svg>